# xmcd CD database file
# Copyright (C) 1997 Ti Kan
# 
# Track frame offsets:
#     150
#     18655
#     39972
#     59132
#     76492
#     95310
#     114422
#     135220
#     156625
#     177967
#     197747
# 
# Disc length: 2980 seconds
# 
# Revision: 1
# Processed by: cddbd v1.4b41PL1 Copyright (c) Steve Scherf et al.
# Submitted via: DiscPlay 4.0.1
# 
DISCID=8f0ba20b
DTITLE=AM/PM - Blue Shades
DYEAR=1900
DGENRE=
TTITLE0=Secrets Of Life
TTITLE1=Cry Out
TTITLE2=Only Time Will Tell
TTITLE3=If This Is Love
TTITLE4=Come Back
TTITLE5=Finally Gone
TTITLE6=Runaway
TTITLE7=Fool For Love
TTITLE8=Worn Out, Low Down
TTITLE9=Free Ride
TTITLE10=Blue Shades
EXTD=
EXTT0=
EXTT1=
EXTT2=
EXTT3=
EXTT4=
EXTT5=
EXTT6=
EXTT7=
EXTT8=
EXTT9=
EXTT10=
PLAYORDER=
